<svg width="40px" height="40px" viewBox="0 0 40 40" version="1.1" xmlns="http://www.w3.org/2000/svg" xmlns:xlink="http://www.w3.org/1999/xlink">
    <defs>
        <polygon id="path-1" points="39.021 0.112 0.001 0.112 0.001 39.298 39.021 39.298"></polygon>
    </defs>
    <g id="Page-1" stroke="none" stroke-width="1" fill="none" fill-rule="evenodd">
        <g id="logo">
            <g id="Clipped">
                <mask id="mask-2" fill="white">
                    <use xlink:href="#path-1"></use>
                </mask>
                <g id="c"></g>
                <path d="M39.021,19.731 C39.021,25.131 37.117,29.739 33.308,33.563 C29.503,37.386 24.912,39.298 19.536,39.298 C14.162,39.298 9.562,37.386 5.736,33.563 C1.913,29.74 0,25.13 0,19.731 C0,14.332 1.913,9.714 5.736,5.873 C9.562,2.033 14.162,0.113 19.536,0.113 C24.912,0.113 29.503,2.033 33.308,5.873 C37.117,9.714 39.021,14.333 39.021,19.731 M30.388,30.008 L30.388,9.506 L30.028,9.506 C29.578,13.036 28.874,16.046 28.013,18.539 C26.013,24.593 23.188,27.619 19.536,27.619 C15.884,27.619 13.042,24.593 11.008,18.539 C10.148,16.046 9.492,13.036 9.045,9.506 L8.683,9.506 L8.683,30.008 C11.956,29.038 15.575,28.554 19.536,28.554 C23.464,28.554 27.082,29.038 30.388,30.008" id="Shape" fill="#EF3C24" fill-rule="nonzero" mask="url(#mask-2)"></path>
            </g>
        </g>
    </g>
</svg>